HIERARCHY
ROOT Hips
{
	OFFSET 0.000000 0.000000 0.000000
	CHANNELS 6 Xposition Yposition Zposition Zrotation Yrotation Xrotation 
	JOINT LeftUpLeg_virtual
	{
		OFFSET 0.000000 0.000000 0.000000
		CHANNELS 3 Zrotation Yrotation Xrotation
		JOINT LeftUpLeg
		{
			OFFSET 8.479694 -4.795517 -0.379053
			CHANNELS 3 Zrotation Yrotation Xrotation
			JOINT LeftLeg
			{
				OFFSET 0.485052 -32.551468 0.112863
				CHANNELS 3 Zrotation Yrotation Xrotation
				JOINT LeftFoot
				{
					OFFSET 0.438033 -32.635670 -3.012641
					CHANNELS 3 Zrotation Yrotation Xrotation
					JOINT LeftToeBase
					{
						OFFSET 0.970169 -13.225353 11.864223
						CHANNELS 3 Zrotation Yrotation Xrotation
						End Site
						{
							OFFSET 0.000000 0.000000 0.000000
						}
					}
				}
			}
		}
	}
	JOINT RightUpLeg_virtual
	{
		OFFSET 0.000000 0.000000 0.000000
		CHANNELS 3 Zrotation Yrotation Xrotation
		JOINT RightUpLeg
		{
			OFFSET -8.479694 -4.795517 -0.379053
			CHANNELS 3 Zrotation Yrotation Xrotation
			JOINT RightLeg
			{
				OFFSET -0.484100 -32.551483 0.112903
				CHANNELS 3 Zrotation Yrotation Xrotation
				JOINT RightFoot
				{
					OFFSET -0.438985 -32.635651 -3.012681
					CHANNELS 3 Zrotation Yrotation Xrotation
					JOINT RightToeBase
					{
						OFFSET -0.970169 -13.225354 11.864223
						CHANNELS 3 Zrotation Yrotation Xrotation
						End Site
						{
							OFFSET 0.000000 0.000000 0.000000
						}
					}
				}
			}
		}
	}
	JOINT Spine_virtual
	{
		OFFSET 0.000000 0.000000 0.000000
		CHANNELS 3 Zrotation Yrotation Xrotation
		JOINT Spine
		{
			OFFSET 0.000000 7.722015 1.166203
			CHANNELS 3 Zrotation Yrotation Xrotation
			JOINT Spine1
			{
				OFFSET 0.000000 12.024086 0.248766
				CHANNELS 3 Zrotation Yrotation Xrotation
				JOINT Spine2
				{
					OFFSET -0.000000 11.503036 -0.491240
					CHANNELS 3 Zrotation Yrotation Xrotation
					JOINT Neck_virtual
					{
						OFFSET 0.000000 0.000000 0.000000
						CHANNELS 3 Zrotation Yrotation Xrotation
						JOINT Neck
						{
							OFFSET 0.000000 18.430687 -3.123054
							CHANNELS 3 Zrotation Yrotation Xrotation
							JOINT Head
							{
								OFFSET -0.000000 9.051071 1.034021
								CHANNELS 3 Zrotation Yrotation Xrotation
								End Site
								{
									OFFSET 0.000000 0.000000 0.000000
								}
							}
						}
					}
					JOINT LeftShoulder_virtual
					{
						OFFSET 0.000000 0.000000 0.000000
						CHANNELS 3 Zrotation Yrotation Xrotation
						JOINT LeftShoulder
						{
							OFFSET 6.197824 13.665230 -4.064723
							CHANNELS 3 Zrotation Yrotation Xrotation
							JOINT LeftArm
							{
								OFFSET 7.778132 -0.187073 -1.709282
								CHANNELS 3 Zrotation Yrotation Xrotation
								JOINT LeftForeArm
								{
									OFFSET 21.954697 0.000000 -2.041093
									CHANNELS 3 Zrotation Yrotation Xrotation
									JOINT LeftHand
									{
										OFFSET 22.992908 0.000000 -0.870901
										CHANNELS 3 Zrotation Yrotation Xrotation
										End Site
										{
											OFFSET 0.000000 0.000000 0.000000
										}
									}
								}
							}
						}
					}
					JOINT RightShoulder_virtual
					{
						OFFSET 0.000000 0.000000 0.000000
						CHANNELS 3 Zrotation Yrotation Xrotation
						JOINT RightShoulder
						{
							OFFSET -6.197824 13.665230 -4.064723
							CHANNELS 3 Zrotation Yrotation Xrotation
							JOINT RightArm
							{
								OFFSET -7.778132 -0.187073 -1.709282
								CHANNELS 3 Zrotation Yrotation Xrotation
								JOINT RightForeArm
								{
									OFFSET -21.954697 0.000000 -2.041093
									CHANNELS 3 Zrotation Yrotation Xrotation
									JOINT RightHand
									{
										OFFSET -22.992908 0.000000 -0.870901
										CHANNELS 3 Zrotation Yrotation Xrotation
										End Site
										{
											OFFSET 0.000000 0.000000 0.000000
										}
									}
								}
							}
						}
					}
				}
			}
		}
	}
}
MOTION
Frames: 8
Frame Time: 0.033333
13.817533 81.092926 -16.543201 179.937522 -36.340110 -179.936170 -2.499667 -5.984932 13.790640 4.494789 -5.223336 -20.458671 4.366847 4.132796 29.545254 0.548079 -7.525939 -12.690416 0.000000 0.000000 0.000000 1.796265 -7.293524 14.697418 -2.346929 4.309098 -19.291504 -0.399949 6.384444 30.735564 8.971464 4.930970 -14.508044 0.000000 0.000000 0.000000 2.820012 -2.858376 -0.266229 1.064994 1.816019 -8.984651 -0.471664 -0.863768 8.443672 0.034189 0.018640 0.016535 -0.659701 0.377577 8.218780 2.572358 -3.199450 2.600674 0.000000 0.000000 0.000000 1.003698 1.088200 4.994662 0.396074 -6.752151 1.039492 -57.292341 8.403574 56.557918 -40.412143 -84.978939 51.536117 0.000000 0.000000 0.000000 -3.691193 2.506568 4.080308 22.476064 6.960582 8.542748 25.857069 57.191298 -16.740988 -4.278683 28.701712 -1.175286 0.000000 0.000000 0.000000 
13.811380 81.074295 -16.628845 179.852104 -36.284499 -179.884452 -2.586519 -5.988965 13.816250 4.545452 -5.278285 -20.424665 4.404121 4.189660 29.594055 0.553405 -7.513956 -12.771757 0.000000 0.000000 0.000000 1.690306 -7.325704 14.684060 -2.265277 4.284627 -19.182991 -0.399540 6.428837 30.675233 9.000420 4.951173 -14.569418 0.000000 0.000000 0.000000 2.730342 -2.887480 -0.221553 0.956282 1.773656 -9.073030 -0.396313 -0.867874 8.458351 0.040162 -0.002392 0.044404 -0.497331 0.653174 8.260628 2.485082 -3.165618 2.188649 0.000000 0.000000 0.000000 1.183825 1.043409 4.995881 0.131123 -6.479619 1.131101 -57.518990 8.921423 56.441159 -40.635445 -84.952240 51.705273 0.000000 0.000000 0.000000 -3.525441 2.527215 4.173598 22.629947 6.956201 8.701328 27.365324 56.094585 -14.950024 -4.380766 28.891939 -1.258775 0.000000 0.000000 0.000000 
13.801124 81.055084 -16.734735 179.954543 -36.246608 -179.946757 -2.598854 -6.038359 13.860146 4.634850 -5.261726 -20.405697 4.461801 4.205415 29.702287 0.578551 -7.523870 -12.890694 0.000000 0.000000 0.000000 1.706032 -7.382815 14.666356 -2.166987 4.259423 -19.055840 -0.379304 6.456638 30.604831 9.045928 5.008799 -14.620145 0.000000 0.000000 0.000000 2.720874 -2.943717 -0.199137 0.929265 1.795482 -9.130631 -0.257073 -0.849308 8.489588 0.028166 0.009254 0.044667 -0.474316 0.427964 8.296889 2.226420 -2.979297 1.661053 0.000000 0.000000 0.000000 1.256662 1.050505 5.071817 0.025405 -6.384230 1.261101 -57.732570 9.356411 56.326063 -43.711496 -85.040377 54.859407 0.000000 0.000000 0.000000 -3.467095 2.531097 4.244578 22.875729 6.967296 9.011239 29.271377 54.300294 -12.747961 -4.514924 29.063285 -1.385756 0.000000 0.000000 0.000000 
13.790166 81.041718 -16.849331 179.859057 -36.263530 -179.836121 -2.702412 -6.173943 13.911374 4.679039 -5.337158 -20.413873 4.535177 4.280491 29.795662 0.640985 -7.487789 -12.939540 0.000000 0.000000 0.000000 1.594467 -7.511374 14.638555 -2.128576 4.143571 -18.968501 -0.358302 6.579827 30.549271 9.105799 5.074505 -14.635386 0.000000 0.000000 0.000000 2.628539 -3.053358 -0.223712 0.814706 1.830194 -9.178252 -0.182706 -0.820123 8.492019 0.018251 0.022786 0.009561 -0.348676 0.567645 8.385754 1.985132 -2.894848 0.997038 0.000000 0.000000 0.000000 1.427201 1.009132 5.153524 -0.142281 -6.172472 1.389222 -57.937305 9.862402 56.312768 -43.867290 -84.870271 55.245739 0.000000 0.000000 0.000000 -3.306297 2.560075 4.395875 23.059113 7.050329 9.360119 31.357084 51.825344 -10.065452 -4.741767 29.211882 -1.665092 0.000000 0.000000 0.000000 
13.779642 81.031158 -16.960295 179.938861 -36.415218 -179.913603 -2.697645 -6.352740 13.987180 4.765702 -5.458099 -20.411310 4.627241 4.253559 29.885732 0.723137 -7.447018 -12.998649 0.000000 0.000000 0.000000 1.589306 -7.774726 14.650010 -2.054417 4.090718 -18.847892 -0.343466 6.630971 30.453618 9.130652 5.117208 -14.634157 0.000000 0.000000 0.000000 2.645501 -3.219206 -0.201626 0.767638 1.843278 -9.092023 -0.097667 -0.852060 8.550951 0.027381 -0.011057 0.061880 -0.349676 0.539061 8.381891 1.684903 -2.700000 0.226981 0.000000 0.000000 0.000000 1.448070 1.063777 5.196739 -0.157234 -5.850956 1.486997 -58.158767 10.475839 56.364695 -45.109240 -84.733291 56.779964 0.000000 0.000000 0.000000 -3.291005 2.591678 4.474547 23.143278 7.225202 9.732607 33.199955 48.770604 -7.721472 -4.649269 29.409510 -1.663070 0.000000 0.000000 0.000000 
13.769559 81.029564 -17.047136 179.863538 -36.489985 -179.820084 -2.782455 -6.538210 14.048646 4.775476 -5.599355 -20.448029 4.711815 4.264878 29.941941 0.818524 -7.362976 -12.986517 0.000000 0.000000 0.000000 1.567425 -7.932920 14.640335 -2.060209 3.778631 -18.772826 -0.310591 6.757490 30.408590 9.238990 5.256321 -14.607495 0.000000 0.000000 0.000000 2.609157 -3.358131 -0.222381 0.661088 1.919843 -9.014779 -0.066305 -0.825394 8.555720 -0.011946 0.007668 0.008258 -0.263358 0.717204 8.444953 1.434284 -2.646853 -0.665193 0.000000 0.000000 0.000000 1.558377 1.063298 5.329229 -0.150918 -5.520618 1.682977 -58.215867 11.241325 56.172162 -46.389200 -84.641999 58.352526 0.000000 0.000000 0.000000 -3.173390 2.629273 4.611900 23.261630 7.465688 10.226045 34.987029 45.156085 -4.742176 -4.757164 29.681649 -1.928392 0.000000 0.000000 0.000000 
13.773821 81.035484 -17.094870 179.924012 -36.576216 -179.834523 -2.791274 -6.690432 14.097189 4.787058 -5.743632 -20.486879 4.804100 4.181458 29.959559 0.897236 -7.274953 -12.976972 0.000000 0.000000 0.000000 1.576245 -8.095568 14.625740 -2.017649 3.668853 -18.727504 -0.280834 6.712949 30.313295 9.313235 5.354271 -14.531467 0.000000 0.000000 0.000000 2.674378 -3.473350 -0.178776 0.626482 2.002144 -8.816862 -0.043787 -0.810453 8.571011 0.032700 0.027038 0.016229 -0.312813 0.622537 8.437282 1.129009 -2.477136 -1.605984 0.000000 0.000000 0.000000 1.544778 1.083209 5.379053 -0.064371 -5.250191 1.896691 -58.120231 12.053361 55.700978 -47.939281 -84.662483 60.159814 0.000000 0.000000 0.000000 -3.192591 2.622875 4.711997 23.190400 7.730714 10.692743 36.305727 41.420787 -1.962106 -4.845463 30.044336 -2.215788 0.000000 0.000000 0.000000 
13.793045 81.050430 -17.113644 179.881146 -36.611843 -179.821491 -2.865892 -6.770859 14.172390 4.809747 -5.921861 -20.500968 4.888454 4.096274 29.916990 0.954640 -7.201290 -12.907860 0.000000 0.000000 0.000000 1.643978 -8.273911 14.625781 -2.132173 3.351993 -18.738651 -0.241672 6.787528 30.285957 9.459903 5.535263 -14.434304 0.000000 0.000000 0.000000 2.670046 -3.574520 -0.195926 0.569523 2.051144 -8.434171 0.016283 -0.797256 8.546379 -0.008115 0.051184 0.047094 -0.254465 0.607712 8.284840 0.941808 -2.418797 -2.660211 0.000000 0.000000 0.000000 1.607884 1.086767 5.322135 0.203204 -4.956817 2.104828 -57.772902 12.982818 55.192662 -50.488622 -84.719139 62.925228 0.000000 0.000000 0.000000 -3.098888 2.621029 4.698593 23.128373 8.073249 11.055407 37.327441 37.577010 0.458897 -4.785223 30.523265 -2.386799 0.000000 0.000000 0.000000 
